# Blender v2.79 (sub 0) OBJ File: 'lever.blend'
# www.blender.org
o LeverHandle_Cylinder.002
v -0.000191 0.124015 -0.019968
v 0.007385 0.124015 -0.018461
v 0.013807 0.124015 -0.014170
v 0.018099 0.124015 -0.007747
v 0.019606 0.124015 -0.000172
v 0.018099 0.124015 0.007404
v 0.013807 0.124015 0.013827
v 0.007385 0.124015 0.018118
v -0.000191 0.124015 0.019625
v -0.007767 0.124015 0.018118
v -0.014189 0.124015 0.013827
v -0.018481 0.124015 0.007404
v -0.019988 0.124015 -0.000172
v -0.018481 0.124015 -0.007747
v -0.014189 0.124015 -0.014170
v -0.007767 0.124015 -0.018461
v -0.000191 0.258840 -0.022737
v -0.000191 0.251785 -0.028472
v 0.008444 0.258840 -0.021020
v 0.010639 0.251785 -0.026318
v 0.015765 0.258840 -0.016128
v 0.019820 0.251785 -0.020183
v 0.020657 0.258840 -0.008807
v 0.025955 0.251785 -0.011002
v 0.022375 0.258840 -0.000172
v 0.028109 0.251785 -0.000172
v 0.020657 0.258840 0.008464
v 0.025955 0.251785 0.010658
v 0.015765 0.258840 0.015785
v 0.019820 0.251785 0.019840
v 0.008444 0.258840 0.020676
v 0.010639 0.251785 0.025974
v -0.000191 0.258840 0.022394
v -0.000191 0.251785 0.028128
v -0.008827 0.258840 0.020676
v -0.011021 0.251785 0.025974
v -0.016147 0.258840 0.015785
v -0.020202 0.251785 0.019840
v -0.021039 0.258840 0.008464
v -0.026337 0.251785 0.010658
v -0.022757 0.258840 -0.000172
v -0.028491 0.251785 -0.000172
v -0.021039 0.258840 -0.008807
v -0.026337 0.251785 -0.011002
v -0.016147 0.258840 -0.016128
v -0.020202 0.251785 -0.020183
v -0.008827 0.258840 -0.021020
v -0.011021 0.251785 -0.026318
v -0.000191 0.124015 -0.019968
v 0.007385 0.124015 -0.018461
v 0.013807 0.124015 -0.014170
v 0.018099 0.124015 -0.007747
v 0.019606 0.124015 -0.000172
v 0.018099 0.124015 0.007404
v 0.013807 0.124015 0.013827
v 0.007385 0.124015 0.018118
v -0.000191 0.124015 0.019625
v -0.007767 0.124015 0.018118
v -0.014189 0.124015 0.013827
v -0.018481 0.124015 0.007404
v -0.019988 0.124015 -0.000172
v -0.018481 0.124015 -0.007747
v -0.014189 0.124015 -0.014170
v -0.007767 0.124015 -0.018461
v -0.000191 0.124015 -0.019968
v 0.003569 0.124015 -0.014178
v 0.013807 0.124015 -0.014170
v 0.018099 0.124015 -0.007747
v 0.019606 0.124015 -0.000172
v 0.018099 0.124015 0.007404
v 0.013807 0.124015 0.013827
v 0.003569 0.124015 0.013834
v -0.000191 0.124015 0.019625
v -0.003951 0.124015 0.013834
v -0.014189 0.124015 0.013827
v -0.018481 0.124015 0.007404
v -0.019988 0.124015 -0.000172
v -0.018481 0.124015 -0.007747
v -0.014189 0.124015 -0.014170
v -0.003951 0.124015 -0.014178
v 0.003382 0.010280 -0.011010
v 0.003382 0.010280 0.010667
v -0.003764 0.010280 0.010667
v -0.003764 0.010280 -0.011010
v -0.047413 -0.000000 -0.023718
v 0.047413 0.000000 -0.023718
v -0.047413 -0.016696 -0.016802
v 0.047413 -0.016696 -0.016802
v -0.047413 -0.023611 -0.000106
v 0.047413 -0.023611 -0.000106
v -0.047413 -0.016696 0.016589
v 0.047413 -0.016696 0.016589
v -0.047413 -0.000000 0.023505
v 0.047413 0.000000 0.023505
v -0.047413 0.016696 0.016589
v 0.047413 0.016696 0.016589
v -0.047413 0.023611 -0.000106
v 0.047413 0.023611 -0.000106
v -0.047413 0.016696 -0.016802
v 0.047413 0.016696 -0.016802
vt 0.000000 0.000000
vt 0.000000 0.000000
vt 0.000000 0.000000
vt 0.000000 0.000000
vt 0.000000 0.605883
vt 0.013893 0.573621
vt 0.039563 0.548928
vt 0.073103 0.535565
vt 0.109407 0.535565
vt 0.142947 0.548928
vt 0.168618 0.573621
vt 0.182510 0.605883
vt 0.182510 0.640803
vt 0.168618 0.673065
vt 0.142947 0.697757
vt 0.109407 0.711121
vt 0.073103 0.711121
vt 0.039563 0.697757
vt 0.013893 0.673065
vt 0.000000 0.640803
vt 0.000000 0.000000
vt 0.000000 0.000000
vt 0.000000 0.000000
vt 0.000000 0.000000
vt 0.000000 0.000000
vt 0.000000 0.000000
vt 0.000000 0.000000
vt 0.000000 0.000000
vt 0.000000 0.000000
vt 0.000000 0.000000
vt 0.000000 0.000000
vt 0.000000 0.000000
vt 0.000000 0.000000
vt 0.000000 0.000000
vt 0.000000 0.000000
vt 0.000000 0.000000
vt 0.000000 0.000000
vt 0.000000 0.000000
vt 0.000000 0.000000
vt 0.000000 0.000000
vt 0.000000 0.000000
vt 0.000000 0.000000
vt 0.000000 0.000000
vt 0.000000 0.000000
vt 0.000000 0.000000
vt 0.000000 0.000000
vt 0.000000 0.000000
vt 0.000000 0.000000
vt 0.000000 0.000000
vt 0.000000 0.000000
vt 0.852074 0.947581
vt 0.863313 0.922423
vt 0.839886 0.888643
vt 0.852074 0.860340
vt 0.874594 0.838678
vt 0.904019 0.826954
vt 0.935867 0.826954
vt 0.959347 0.860700
vt 0.987812 0.860340
vt 0.976573 0.885498
vt 1.000000 0.919278
vt 0.987812 0.947581
vt 0.965292 0.969244
vt 0.935867 0.980967
vt 0.904019 0.980967
vt 0.880539 0.947221
vt 0.935867 0.826954
vt 0.965292 0.838678
vt 0.904019 0.980967
vt 0.874594 0.969244
vt 0.987812 0.860340
vt 0.852074 0.947581
vt 0.839886 0.919278
vt 1.000000 0.888643
vt 0.839886 0.888643
vt 1.000000 0.919278
vt 0.000000 0.000000
vt 0.000000 0.000000
vt 0.000000 0.000000
vt 0.000000 0.000000
vt 0.000000 0.000000
vt 0.000000 0.000000
vt 0.000000 0.000000
vt 0.000000 0.000000
vt 0.244524 0.646663
vt 0.213517 0.646663
vt 0.213517 0.535565
vt 0.244524 0.535565
vt 0.273985 0.621536
vt 0.244524 0.621536
vt 0.244524 0.535565
vt 0.273985 0.535565
vt 0.605252 0.986814
vt 0.606024 0.535558
vt 0.635486 0.535558
vt 0.636258 0.986814
vt 0.213517 0.535565
vt 0.212744 0.986821
vt 0.183283 0.986821
vt 0.182510 0.535565
vt 0.775584 0.450861
vt 0.788646 0.000000
vt 0.878022 0.000000
vt 0.891084 0.450861
vt 0.775584 0.000000
vt 0.762523 0.450861
vt 0.673146 0.450861
vt 0.660085 0.000000
vt 0.397907 0.911651
vt 0.397907 0.535558
vt 0.467647 0.535558
vt 0.467647 0.911651
vt 0.935443 0.450861
vt 0.935443 0.826954
vt 0.866603 0.826954
vt 0.866603 0.450861
vt 0.797764 0.826954
vt 0.797764 0.450861
vt 0.467647 0.911651
vt 0.467647 0.535558
vt 0.537387 0.535558
vt 0.537387 0.911651
vt 0.605252 0.535558
vt 0.605252 0.911651
vt 0.660085 0.826954
vt 0.660085 0.450861
vt 0.728924 0.450861
vt 0.728924 0.826954
vt 0.839886 0.949344
vt 0.787223 1.000000
vt 0.712747 0.999972
vt 0.660085 0.949276
vt 0.660085 0.877610
vt 0.712747 0.826954
vt 0.787223 0.826982
vt 0.839886 0.877678
vt 0.797764 0.450861
vt 0.797764 0.826954
vt 0.330043 0.911651
vt 0.330042 0.535558
vt 0.052663 0.884167
vt 0.000000 0.833511
vt 0.000000 0.761844
vt 0.052663 0.711149
vt 0.127139 0.711121
vt 0.179801 0.761777
vt 0.179801 0.833443
vt 0.127139 0.884138
vt 0.546338 0.534998
vt 0.532920 0.027499
vt 0.577574 0.027218
vt 0.577574 0.534802
vt 0.189814 0.535565
vt 0.165021 0.028303
vt 0.202877 0.027493
vt 0.216295 0.534998
vt 0.247532 0.027208
vt 0.247532 0.534799
vt 0.292186 0.027493
vt 0.278769 0.534998
vt 0.330042 0.028303
vt 0.305250 0.535565
vt 0.354835 0.535558
vt 0.367899 0.027499
vt 0.381316 0.534998
vt 0.412553 0.027218
vt 0.412553 0.534802
vt 0.457207 0.027499
vt 0.443790 0.534998
vt 0.495064 0.028299
vt 0.470271 0.535558
vt 0.024793 0.535565
vt 0.000000 0.028303
vt 0.037856 0.027493
vt 0.051274 0.534998
vt 0.082511 0.027208
vt 0.082511 0.534799
vt 0.127165 0.027493
vt 0.113747 0.534998
vt 0.165021 0.028303
vt 0.140229 0.535565
vt 0.519856 0.535558
vt 0.495064 0.028299
vt 0.622229 0.027499
vt 0.608811 0.534998
vt 0.660085 0.028299
vt 0.635292 0.535558
vt 0.577574 0.000000
vt 0.613180 0.000224
vt 0.643366 0.000862
vt 0.181741 0.000873
vt 0.211926 0.000227
vt 0.247532 0.000000
vt 0.283138 0.000227
vt 0.313323 0.000873
vt 0.346762 0.000862
vt 0.376947 0.000224
vt 0.412553 0.000000
vt 0.448159 0.000224
vt 0.478344 0.000862
vt 0.016719 0.000873
vt 0.046905 0.000227
vt 0.082511 0.000000
vt 0.118117 0.000227
vt 0.148302 0.000873
vt 0.511783 0.000862
vt 0.541968 0.000224
vn 0.0000 0.0000 1.0000
vn 0.0000 1.0000 -0.0000
vn 0.0000 -1.0000 -0.0000
vn 0.0000 -0.0278 0.9996
vn 0.0000 -0.0278 -0.9996
vn -1.0000 -0.0016 -0.0000
vn 1.0000 -0.0016 -0.0000
vn 0.0000 -0.3827 -0.9239
vn 0.0000 -0.9239 -0.3827
vn 0.0000 -0.9239 0.3827
vn 0.0000 -0.3827 0.9239
vn -0.0000 0.3827 0.9239
vn -0.0000 0.9239 0.3827
vn 1.0000 0.0000 0.0000
vn -0.0000 0.9239 -0.3827
vn -0.0000 0.3827 -0.9239
vn -1.0000 -0.0000 0.0000
vn -0.9600 -0.1669 0.2246
vn -0.3661 0.2908 -0.8839
vn 0.0000 0.2908 -0.9568
vn 0.0000 -0.9803 0.1974
vn 0.9142 -0.0860 0.3960
vn 0.6765 0.2908 -0.6765
vn 0.8839 0.2908 -0.3661
vn 0.8244 -0.0594 0.5628
vn 0.9568 0.2908 0.0000
vn 0.7016 -0.0467 0.7110
vn 0.8839 0.2908 0.3661
vn 0.5514 -0.0397 0.8332
vn 0.6765 0.2908 0.6765
vn 0.3799 -0.0357 0.9243
vn 0.3661 0.2908 0.8839
vn 0.1937 -0.0337 0.9805
vn 0.0000 0.2908 0.9568
vn 0.0000 -0.0330 0.9995
vn -0.3661 0.2908 0.8839
vn -0.1937 -0.0337 0.9805
vn -0.6765 0.2908 0.6765
vn -0.3799 -0.0357 0.9243
vn -0.8839 0.2908 0.3661
vn -0.5514 -0.0397 0.8332
vn -0.9568 0.2908 0.0000
vn -0.7016 -0.0467 0.7110
vn -0.8839 0.2908 -0.3661
vn -0.8244 -0.0594 0.5628
vn -0.6765 0.2908 -0.6765
vn -0.9142 -0.0860 0.3960
vn 0.3661 0.2908 -0.8839
vn 0.9600 -0.1669 0.2246
vn 0.0000 0.8819 -0.4714
vn 0.1804 0.8819 -0.4355
vn 0.3334 0.8819 -0.3333
vn 0.4355 0.8819 -0.1804
vn 0.4714 0.8819 0.0000
vn 0.4355 0.8819 0.1804
vn 0.3334 0.8819 0.3333
vn 0.1804 0.8819 0.4355
vn 0.0000 0.8819 0.4714
vn -0.1804 0.8819 0.4355
vn -0.3334 0.8819 0.3333
vn -0.4355 0.8819 0.1804
vn -0.4714 0.8819 0.0000
vn -0.4355 0.8819 -0.1804
vn -0.3333 0.8819 -0.3334
vn -0.1804 0.8819 -0.4355
s off
f 5/1/1 6/2/1 54/3/1 53/4/1
f 19/5/2 17/6/2 47/7/2 45/8/2 43/9/2 41/10/2 39/11/2 37/12/2 35/13/2 33/14/2 31/15/2 29/16/2 27/17/2 25/18/2 23/19/2 21/20/2
f 62/21/1 63/22/1 79/23/1 78/24/1
f 13/25/1 14/26/1 62/21/1 61/27/1
f 6/2/1 7/28/1 55/29/1 54/3/1
f 14/26/1 15/30/1 63/22/1 62/21/1
f 7/28/1 8/31/1 56/32/1 55/29/1
f 15/30/1 16/33/1 64/34/1 63/22/1
f 8/31/1 9/35/1 57/36/1 56/32/1
f 1/37/1 2/38/1 50/39/1 49/40/1
f 16/33/1 1/37/1 49/40/1 64/34/1
f 9/35/1 10/41/1 58/42/1 57/36/1
f 2/38/1 3/43/1 51/44/1 50/39/1
f 10/41/1 11/45/1 59/46/1 58/42/1
f 3/43/1 4/47/1 52/48/1 51/44/1
f 11/45/1 12/49/1 60/50/1 59/46/1
f 4/47/1 5/1/1 53/4/1 52/48/1
f 12/49/1 13/25/1 61/27/1 60/50/1
f 65/51/3 66/52/3 67/53/3 68/54/3 69/55/3 70/56/3 71/57/3 72/58/3 73/59/3 74/60/3 75/61/3 76/62/3 77/63/3 78/64/3 79/65/3 80/66/3
f 55/67/3 56/68/3 72/58/3 71/57/3
f 63/69/3 64/70/3 80/66/3 79/65/3
f 56/68/3 57/71/3 73/59/3 72/58/3
f 49/72/3 50/73/3 66/52/3 65/51/3
f 64/70/3 49/72/3 65/51/3 80/66/3
f 57/71/3 58/74/3 74/60/3 73/59/3
f 50/73/3 51/75/3 67/53/3 66/52/3
f 58/74/3 59/76/3 75/61/3 74/60/3
f 51/44/1 52/48/1 68/77/1 67/78/1
f 59/46/1 60/50/1 76/79/1 75/80/1
f 52/48/1 53/4/1 69/81/1 68/77/1
f 60/50/1 61/27/1 77/82/1 76/79/1
f 53/4/1 54/3/1 70/83/1 69/81/1
f 61/27/1 62/21/1 78/24/1 77/82/1
f 54/3/1 55/29/1 71/84/1 70/83/1
f 72/85/3 74/86/3 80/87/3 66/88/3
f 82/89/3 83/90/3 84/91/3 81/92/3
f 74/93/4 83/94/4 82/95/4 72/96/4
f 66/97/5 81/98/5 84/99/5 80/100/5
f 80/101/6 84/102/6 83/103/6 74/104/6
f 72/105/7 82/106/7 81/107/7 66/108/7
f 85/109/8 86/110/8 88/111/8 87/112/8
f 87/113/9 88/114/9 90/115/9 89/116/9
f 89/116/10 90/115/10 92/117/10 91/118/10
f 91/119/11 92/120/11 94/121/11 93/122/11
f 93/122/12 94/121/12 96/123/12 95/124/12
f 95/125/13 96/126/13 98/127/13 97/128/13
f 88/129/14 86/130/14 100/131/14 98/132/14 96/133/14 94/134/14 92/135/14 90/136/14
f 97/128/15 98/127/15 100/137/15 99/138/15
f 99/139/16 100/140/16 86/110/16 85/109/16
f 85/141/17 87/142/17 89/143/17 91/144/17 93/145/17 95/146/17 97/147/17 99/148/17
s 1
f 16/149/18 48/150/19 18/151/20 1/152/21
f 3/153/22 22/154/23 24/155/24 4/156/25
f 4/156/25 24/155/24 26/157/26 5/158/27
f 5/158/27 26/157/26 28/159/28 6/160/29
f 6/160/29 28/159/28 30/161/30 7/162/31
f 7/163/31 30/161/30 32/164/32 8/165/33
f 8/165/33 32/164/32 34/166/34 9/167/35
f 9/167/35 34/166/34 36/168/36 10/169/37
f 10/169/37 36/168/36 38/170/38 11/171/39
f 11/172/39 38/173/38 40/174/40 12/175/41
f 12/175/41 40/174/40 42/176/42 13/177/43
f 13/177/43 42/176/42 44/178/44 14/179/45
f 14/179/45 44/178/44 46/180/46 15/181/47
f 15/182/47 46/183/46 48/150/19 16/149/18
f 1/152/21 18/151/20 20/184/48 2/185/49
f 2/185/49 20/184/48 22/186/23 3/187/22
f 20/184/48 18/151/20 17/188/50 19/189/51
f 22/186/23 20/184/48 19/189/51 21/190/52
f 24/155/24 22/154/23 21/191/52 23/192/53
f 26/157/26 24/155/24 23/192/53 25/193/54
f 28/159/28 26/157/26 25/193/54 27/194/55
f 30/161/30 28/159/28 27/194/55 29/195/56
f 32/164/32 30/161/30 29/196/56 31/197/57
f 34/166/34 32/164/32 31/197/57 33/198/58
f 36/168/36 34/166/34 33/198/58 35/199/59
f 38/170/38 36/168/36 35/199/59 37/200/60
f 40/174/40 38/173/38 37/201/60 39/202/61
f 42/176/42 40/174/40 39/202/61 41/203/62
f 44/178/44 42/176/42 41/203/62 43/204/63
f 46/180/46 44/178/44 43/204/63 45/205/64
f 48/150/19 46/183/46 45/206/64 47/207/65
f 18/151/20 48/150/19 47/207/65 17/188/50
