# Blender v2.79 (sub 0) OBJ File: 'door.blend'
# www.blender.org
o DoorDoor_Cylinder
v 0.000000 2.522077 -0.084996
v 0.000000 2.522077 0.084996
v 0.155859 2.512991 -0.084996
v 0.155859 2.512991 0.084996
v 0.305727 2.486080 -0.084996
v 0.305727 2.486080 0.084996
v 0.443847 2.442379 -0.084996
v 0.443847 2.442379 0.084996
v 0.564911 2.383569 -0.084996
v 0.564911 2.383569 0.084996
v 0.664265 2.311908 -0.084996
v 0.664265 2.311908 0.084996
v 0.738091 2.230150 -0.084996
v 0.738091 2.230150 0.084996
v 0.783553 2.141438 -0.084996
v 0.783553 2.141438 0.084996
v 0.798904 2.049180 -0.084996
v 0.798904 2.049180 0.084996
v -0.798904 2.049181 -0.084996
v -0.798904 2.049181 0.084996
v -0.783553 2.141438 -0.084996
v -0.783553 2.141438 0.084996
v -0.738091 2.230150 -0.084996
v -0.738091 2.230150 0.084996
v -0.664264 2.311908 -0.084996
v -0.664264 2.311908 0.084996
v -0.564910 2.383569 -0.084996
v -0.564910 2.383569 0.084996
v -0.443846 2.442380 -0.084996
v -0.443846 2.442380 0.084996
v -0.305726 2.486080 -0.084996
v -0.305726 2.486080 0.084996
v -0.155857 2.512991 -0.084996
v -0.155857 2.512991 0.084996
v 0.798904 0.005471 0.084996
v 0.798904 0.005471 -0.084996
v -0.798904 0.005471 0.084996
v -0.798904 0.005471 -0.084996
vt 0.991883 0.768136
vt 0.920856 0.768136
vt 0.920856 0.730736
vt 0.991883 0.730736
vt 0.920856 0.694773
vt 0.991883 0.694773
vt 0.920856 0.661630
vt 0.991883 0.661630
vt 0.920856 0.632579
vt 0.991883 0.632579
vt 0.920856 0.608738
vt 0.991883 0.608738
vt 0.904622 0.593040
vt 0.833596 0.593040
vt 0.833596 0.568998
vt 0.904622 0.568998
vt 0.833596 0.544565
vt 0.904622 0.544565
vt 0.833596 0.520681
vt 0.904622 0.520681
vt 0.991883 0.080208
vt 0.920856 0.080208
vt 0.920856 0.056324
vt 0.991883 0.056324
vt 0.920856 0.031891
vt 0.991883 0.031891
vt 0.920856 0.007849
vt 0.991883 0.007849
vt 0.991883 0.927534
vt 0.920856 0.927534
vt 0.920856 0.903693
vt 0.991883 0.903693
vt 0.920856 0.874642
vt 0.991883 0.874642
vt 0.920856 0.841499
vt 0.991883 0.841499
vt 0.920856 0.805536
vt 0.991883 0.805536
vt 0.420856 0.128938
vt 0.817362 0.128938
vt 0.817362 0.652245
vt 0.420856 0.652245
vt 0.580432 0.010175
vt 0.619109 0.007849
vt 0.657786 0.010175
vt 0.694977 0.017066
vt 0.729252 0.028256
vt 0.759295 0.043315
vt 0.783950 0.061664
vt 0.802271 0.082599
vt 0.813552 0.105314
vt 0.424666 0.105314
vt 0.435947 0.082599
vt 0.454268 0.061664
vt 0.478923 0.043315
vt 0.508966 0.028256
vt 0.543241 0.017066
vt 0.206370 0.007849
vt 0.245047 0.010175
vt 0.282238 0.017066
vt 0.316513 0.028256
vt 0.346556 0.043315
vt 0.371211 0.061664
vt 0.389531 0.082599
vt 0.400813 0.105314
vt 0.404622 0.128938
vt 0.008117 0.128938
vt 0.011926 0.105314
vt 0.023208 0.082599
vt 0.041529 0.061664
vt 0.066184 0.043315
vt 0.096226 0.028256
vt 0.130502 0.017066
vt 0.167693 0.010175
vt 0.833596 0.608738
vt 0.904622 0.608738
vt 0.904622 0.992151
vt 0.833596 0.992151
vt 0.991883 0.593040
vt 0.920856 0.593040
vt 0.404623 0.652245
vt 0.008117 0.652245
vt 0.833596 0.007849
vt 0.904622 0.007849
vn 0.0582 0.9983 0.0000
vn 0.1767 0.9843 0.0000
vn 0.3017 0.9534 0.0000
vn 0.4370 0.8995 0.0000
vn 0.5850 0.8110 0.0000
vn 0.7422 0.6702 0.0000
vn 0.8899 0.4561 0.0000
vn 0.9864 0.1641 0.0000
vn -0.9864 0.1641 0.0000
vn -0.8899 0.4561 -0.0000
vn -0.7422 0.6702 -0.0000
vn -0.5850 0.8110 0.0000
vn -0.4370 0.8995 0.0000
vn -0.3017 0.9534 0.0000
vn -0.1767 0.9843 0.0000
vn -0.0582 0.9983 0.0000
vn -0.0000 -0.0000 1.0000
vn 0.0000 0.0000 -1.0000
vn -0.0000 -1.0000 -0.0000
vn -1.0000 0.0000 0.0000
vn 1.0000 -0.0000 -0.0000
s off
f 1/1/1 2/2/1 4/3/1 3/4/1
f 3/4/2 4/3/2 6/5/2 5/6/2
f 5/6/3 6/5/3 8/7/3 7/8/3
f 7/8/4 8/7/4 10/9/4 9/10/4
f 9/10/5 10/9/5 12/11/5 11/12/5
f 11/13/6 12/14/6 14/15/6 13/16/6
f 13/16/7 14/15/7 16/17/7 15/18/7
f 15/18/8 16/17/8 18/19/8 17/20/8
f 19/21/9 20/22/9 22/23/9 21/24/9
f 21/24/10 22/23/10 24/25/10 23/26/10
f 23/26/11 24/25/11 26/27/11 25/28/11
f 25/29/12 26/30/12 28/31/12 27/32/12
f 27/32/13 28/31/13 30/33/13 29/34/13
f 29/34/14 30/33/14 32/35/14 31/36/14
f 31/36/15 32/35/15 34/37/15 33/38/15
f 33/38/16 34/37/16 2/2/16 1/1/16
f 18/39/17 20/40/17 37/41/17 35/42/17
f 4/43/17 2/44/17 34/45/17 32/46/17 30/47/17 28/48/17 26/49/17 24/50/17 22/51/17 20/40/17 18/39/17 16/52/17 14/53/17 12/54/17 10/55/17 8/56/17 6/57/17
f 1/58/18 3/59/18 5/60/18 7/61/18 9/62/18 11/63/18 13/64/18 15/65/18 17/66/18 19/67/18 21/68/18 23/69/18 25/70/18 27/71/18 29/72/18 31/73/18 33/74/18
f 36/75/19 35/76/19 37/77/19 38/78/19
f 20/22/20 19/21/20 38/79/20 37/80/20
f 19/67/18 17/66/18 36/81/18 38/82/18
f 17/20/21 18/19/21 35/83/21 36/84/21
