# Blender v2.79 (sub 0) OBJ File: 'door.blend'
# www.blender.org
o DoorFrame_Cylinder.001
v 0.000000 2.477538 -0.151327
v 0.000000 2.477538 0.151327
v 0.169355 2.462003 -0.151327
v 0.169355 2.462003 0.151327
v 0.332201 2.415995 -0.151327
v 0.332201 2.415995 0.151327
v 0.482281 2.341283 -0.151327
v 0.482281 2.341283 0.151327
v 0.613827 2.240737 -0.151327
v 0.613827 2.240737 0.151327
v 0.721784 2.118221 -0.151327
v 0.721784 2.118221 0.151327
v -0.721784 2.118222 -0.151327
v -0.721784 2.118222 0.151327
v -0.613826 2.240737 -0.151327
v -0.613826 2.240737 0.151327
v -0.482280 2.341283 -0.151327
v -0.482280 2.341283 0.151327
v -0.332200 2.415996 -0.151327
v -0.332200 2.415996 0.151327
v -0.169353 2.462003 -0.151327
v -0.169353 2.462003 0.151327
v 0.721784 0.005348 -0.151470
v 0.721784 0.005348 0.151470
v -0.721784 0.005349 -0.151470
v -0.721784 0.005349 0.151470
v 0.000000 2.477538 -0.151327
v 0.000000 2.477538 0.151327
v 0.169355 2.462003 -0.151327
v 0.169355 2.462003 0.151327
v 0.332201 2.415995 -0.151327
v 0.332201 2.415995 0.151327
v 0.482281 2.341283 -0.151327
v 0.482281 2.341283 0.151327
v 0.613827 2.240737 -0.151327
v 0.613827 2.240737 0.151327
v 0.721784 2.118221 -0.151327
v 0.721784 2.118221 0.151327
v -0.721784 2.118222 -0.151327
v -0.721784 2.118222 0.151327
v -0.613826 2.240737 -0.151327
v -0.613826 2.240737 0.151327
v -0.482280 2.341283 -0.151327
v -0.482280 2.341283 0.151327
v -0.332200 2.415996 -0.151327
v -0.332200 2.415996 0.151327
v -0.169353 2.462003 -0.151327
v -0.169353 2.462003 0.151327
v 0.721784 0.005348 -0.151470
v 0.721784 0.005348 0.151470
v -0.721784 0.005349 -0.151470
v -0.721784 0.005349 0.151470
v 0.000000 2.738740 -0.319181
v 0.000000 2.738740 0.319181
v 0.219294 2.718074 -0.319181
v 0.219294 2.718074 0.319181
v 0.430161 2.656870 -0.319181
v 0.430161 2.656870 0.319181
v 0.624497 2.557482 -0.319181
v 0.624497 2.557482 0.319181
v 0.794834 2.423728 -0.319181
v 0.794834 2.423728 0.319181
v 0.934626 2.260747 -0.319181
v 0.934626 2.260747 0.319181
v -0.934625 2.260748 -0.319181
v -0.934625 2.260748 0.319181
v -0.794833 2.423728 -0.319181
v -0.794833 2.423728 0.319181
v -0.624496 2.557483 -0.319181
v -0.624496 2.557483 0.319181
v -0.430159 2.656871 -0.319181
v -0.430159 2.656871 0.319181
v -0.219292 2.718074 -0.319181
v -0.219292 2.718074 0.319181
v 0.978799 -0.003273 -0.319181
v 0.978799 -0.003273 0.319181
v -0.978798 -0.003272 -0.319181
v -0.978798 -0.003272 0.319181
v -0.000000 2.957977 0.000000
v 0.258020 2.937311 0.000000
v 0.506125 2.876108 0.000000
v 0.734780 2.776720 0.000000
v 0.935197 2.642965 0.000000
v 1.099675 2.479985 0.000000
v -1.099675 2.479986 0.000000
v -0.935196 2.642966 0.000000
v -0.734778 2.776721 0.000000
v -0.506123 2.876109 0.000000
v -0.258018 2.937312 0.000000
v 1.179422 -0.003273 0.000000
v -1.179422 -0.003272 0.000000
vt 0.938132 0.007155
vt 0.978334 0.007155
vt 0.978334 0.079334
vt 0.938132 0.079334
vt 0.938132 0.180131
vt 0.978134 0.180131
vt 0.978134 0.252310
vt 0.938132 0.252310
vt 0.977762 0.511775
vt 0.938132 0.511775
vt 0.938132 0.439596
vt 0.977762 0.439596
vt 0.242215 0.920666
vt 0.281355 0.920666
vt 0.281355 0.992845
vt 0.242216 0.992845
vt 0.992573 0.848935
vt 0.953972 0.848935
vt 0.953972 0.776756
vt 0.992573 0.776756
vt 0.953769 0.649426
vt 0.992370 0.649426
vt 0.992370 0.721605
vt 0.953769 0.721605
vt 0.992908 0.633678
vt 0.953769 0.633678
vt 0.953769 0.561499
vt 0.992908 0.561499
vt 0.977762 0.425287
vt 0.938132 0.425287
vt 0.938132 0.353108
vt 0.977762 0.353108
vt 0.978134 0.338798
vt 0.938132 0.338798
vt 0.938132 0.266619
vt 0.978134 0.266619
vt 0.938132 0.093643
vt 0.978333 0.093643
vt 0.978333 0.165822
vt 0.938132 0.165822
vt 0.852372 0.511048
vt 0.852338 0.007155
vt 0.923949 0.007155
vt 0.923915 0.511048
vt 0.838121 0.007155
vt 0.838155 0.511048
vt 0.766543 0.511048
vt 0.766577 0.007155
vt 0.323459 0.847166
vt 0.363087 0.846802
vt 0.368396 0.920420
vt 0.316799 0.920420
vt 0.531726 0.628501
vt 0.492605 0.689015
vt 0.420034 0.689015
vt 0.421539 0.599125
vt 0.502470 0.561499
vt 0.827530 0.649624
vt 0.867731 0.649708
vt 0.873805 0.723440
vt 0.821737 0.723440
vt 0.144575 0.843825
vt 0.184203 0.844189
vt 0.190863 0.917443
vt 0.139265 0.917443
vt 0.893298 0.561499
vt 0.932926 0.561862
vt 0.939586 0.635116
vt 0.887988 0.635116
vt 0.566942 0.810390
vt 0.607143 0.810305
vt 0.612936 0.884121
vt 0.560868 0.884121
vt 0.827811 0.561583
vt 0.868012 0.561499
vt 0.873805 0.635314
vt 0.821737 0.635314
vt 0.894648 0.649987
vt 0.934277 0.649624
vt 0.939586 0.723242
vt 0.887988 0.723241
vt 0.500410 0.810305
vt 0.540612 0.810390
vt 0.546685 0.884121
vt 0.494617 0.884121
vt 0.499594 0.898430
vt 0.538192 0.898865
vt 0.545374 0.971542
vt 0.494617 0.971542
vt 0.420034 0.543954
vt 0.427951 0.040133
vt 0.492478 0.007155
vt 0.492478 0.547189
vt 0.895531 0.777188
vt 0.934667 0.776756
vt 0.939789 0.850136
vt 0.888593 0.850136
vt 0.000000 0.000000
vt 0.000000 0.000000
vt 0.000000 0.000000
vt 0.000000 0.000000
vt 0.000000 0.000000
vt 0.000000 0.000000
vt 0.000000 0.000000
vt 0.000000 0.000000
vt 0.000000 0.000000
vt 0.000000 0.000000
vt 0.000000 0.000000
vt 0.000000 0.000000
vt 0.000000 0.000000
vt 0.000000 0.000000
vt 0.000000 0.000000
vt 0.000000 0.000000
vt 0.000000 0.000000
vt 0.000000 0.000000
vt 0.000000 0.000000
vt 0.000000 0.000000
vt 0.000000 0.000000
vt 0.000000 0.000000
vt 0.000000 0.000000
vt 0.000000 0.000000
vt 0.000000 0.000000
vt 0.000000 0.000000
vt 0.000000 0.000000
vt 0.000000 0.000000
vt 0.000000 0.000000
vt 0.000000 0.000000
vt 0.000000 0.000000
vt 0.000000 0.000000
vt 0.000000 0.000000
vt 0.000000 0.000000
vt 0.000000 0.000000
vt 0.000000 0.000000
vt 0.000000 0.000000
vt 0.000000 0.000000
vt 0.000000 0.000000
vt 0.000000 0.000000
vt 0.000000 0.000000
vt 0.000000 0.000000
vt 0.000000 0.000000
vt 0.000000 0.000000
vt 0.000000 0.000000
vt 0.000000 0.000000
vt 0.000000 0.000000
vt 0.000000 0.000000
vt 0.000000 0.000000
vt 0.000000 0.000000
vt 0.000000 0.000000
vt 0.000000 0.000000
vt 0.494617 0.795996
vt 0.498753 0.703743
vt 0.550819 0.703324
vt 0.555805 0.795996
vt 0.242215 0.707954
vt 0.245726 0.615218
vt 0.297607 0.613987
vt 0.302615 0.707954
vt 0.080195 0.829516
vt 0.084355 0.735512
vt 0.135898 0.733561
vt 0.139115 0.829516
vt 0.671784 0.876984
vt 0.677637 0.781160
vt 0.728714 0.778052
vt 0.728714 0.876266
vt 0.007092 0.719251
vt 0.011354 0.621132
vt 0.061587 0.613987
vt 0.061587 0.714360
vt 0.371294 0.618879
vt 0.371294 0.719251
vt 0.321061 0.712106
vt 0.316799 0.613987
vt 0.803297 0.777474
vt 0.803297 0.875688
vt 0.752220 0.872580
vt 0.746367 0.776756
vt 0.007092 0.829516
vt 0.010309 0.733561
vt 0.061852 0.735512
vt 0.066012 0.829516
vt 0.671784 0.655466
vt 0.676792 0.561499
vt 0.728673 0.562730
vt 0.732184 0.655466
vt 0.746367 0.654170
vt 0.751353 0.561499
vt 0.803418 0.561917
vt 0.807554 0.654170
vt 0.199380 0.599677
vt 0.113717 0.548698
vt 0.110327 0.008674
vt 0.199380 0.007155
vt 0.405851 0.599677
vt 0.320188 0.548698
vt 0.316799 0.008674
vt 0.405851 0.007155
vt 0.565845 0.898430
vt 0.604443 0.898865
vt 0.611625 0.971542
vt 0.560868 0.971542
vt 0.585030 0.689015
vt 0.545909 0.628501
vt 0.575165 0.561499
vt 0.656096 0.599125
vt 0.657601 0.689015
vt 0.753304 0.890429
vt 0.792441 0.889997
vt 0.797562 0.963377
vt 0.746367 0.963377
vt 0.427217 0.900119
vt 0.465815 0.899685
vt 0.470791 0.972796
vt 0.420034 0.972796
vt 0.687833 0.514211
vt 0.679916 0.010390
vt 0.752360 0.007155
vt 0.752360 0.547189
vt 0.816868 0.889997
vt 0.856004 0.890429
vt 0.862941 0.963377
vt 0.811746 0.963377
vt 0.012627 0.843825
vt 0.052628 0.844067
vt 0.058995 0.917599
vt 0.007092 0.917599
vt 0.248583 0.832825
vt 0.288583 0.832583
vt 0.294119 0.906357
vt 0.242215 0.906357
vt 0.593289 0.543954
vt 0.601206 0.040133
vt 0.665733 0.007155
vt 0.665733 0.547189
vt 0.079545 0.844067
vt 0.119546 0.843825
vt 0.125082 0.917599
vt 0.073178 0.917599
vt 0.425570 0.811601
vt 0.465571 0.811843
vt 0.471938 0.885376
vt 0.420034 0.885376
vt 0.893715 0.864445
vt 0.932852 0.864877
vt 0.939789 0.937825
vt 0.888593 0.937825
vt 0.514578 0.514211
vt 0.506662 0.010390
vt 0.579106 0.007155
vt 0.579106 0.547189
vt 0.678966 0.891728
vt 0.717564 0.891294
vt 0.722541 0.964405
vt 0.671784 0.964405
vt 0.010481 0.058134
vt 0.096144 0.007155
vt 0.096144 0.599677
vt 0.007092 0.598158
vt 0.216952 0.058134
vt 0.302615 0.007155
vt 0.302615 0.599677
vt 0.213563 0.598158
vt 0.802568 0.669775
vt 0.807554 0.762447
vt 0.746367 0.762447
vt 0.750503 0.670194
vt 0.475426 0.703324
vt 0.480434 0.797292
vt 0.420034 0.797292
vt 0.423545 0.704556
vt 0.301102 0.722264
vt 0.301102 0.818274
vt 0.242215 0.816264
vt 0.249523 0.722455
vt 0.373729 0.733561
vt 0.373729 0.831774
vt 0.316799 0.832493
vt 0.322652 0.736669
vt 0.130266 0.613987
vt 0.130266 0.714360
vt 0.075770 0.719251
vt 0.080033 0.621132
vt 0.148712 0.712106
vt 0.144449 0.613987
vt 0.198945 0.618878
vt 0.198945 0.719251
vt 0.823333 0.872580
vt 0.817480 0.776756
vt 0.874410 0.777474
vt 0.874410 0.875688
vt 0.208059 0.735512
vt 0.212219 0.829516
vt 0.153299 0.829516
vt 0.156516 0.733561
vt 0.728673 0.671007
vt 0.732184 0.763743
vt 0.671784 0.763743
vt 0.676792 0.669775
vt 0.627039 0.703743
vt 0.631175 0.795996
vt 0.569988 0.795996
vt 0.574974 0.703324
vn -0.0913 -0.9958 0.0000
vn -0.2719 -0.9623 0.0000
vn -0.4456 -0.8952 0.0000
vn -0.6073 -0.7945 0.0000
vn -0.7503 -0.6611 0.0000
vn 0.7503 -0.6611 0.0000
vn 0.6073 -0.7945 0.0000
vn 0.4456 -0.8952 0.0000
vn 0.2719 -0.9623 -0.0000
vn 0.0913 -0.9958 0.0000
vn 1.0000 0.0000 0.0000
vn -1.0000 0.0000 0.0000
vn 0.2459 -0.4865 0.8383
vn -0.0219 -0.9998 0.0000
vn -0.0503 -0.5403 0.8400
vn 0.2459 -0.4865 -0.8383
vn -0.2459 -0.4865 0.8383
vn 0.0503 -0.5403 0.8400
vn -0.0503 -0.5403 -0.8400
vn -0.2459 -0.4865 -0.8383
vn 0.0503 -0.5403 -0.8400
vn -0.4148 -0.3600 0.8357
vn -0.5801 -0.0058 -0.8145
vn 0.3355 -0.4323 0.8370
vn 0.0000 0.0000 1.0000
vn 0.0710 0.8202 0.5677
vn 0.2101 0.7879 0.5789
vn 0.3409 0.7255 0.5978
vn 0.4599 0.6373 0.6183
vn 0.5657 0.5281 0.6334
vn -0.5657 0.5281 0.6334
vn -0.4599 0.6373 0.6183
vn -0.3409 0.7255 0.5978
vn -0.2101 0.7879 0.5789
vn -0.0710 0.8202 0.5677
vn -0.8641 0.0226 -0.5028
vn 0.8641 0.0226 0.5028
vn 0.4148 -0.3600 -0.8357
vn 0.0219 -0.9998 0.0000
vn -0.3355 -0.4323 -0.8370
vn 0.4148 -0.3600 0.8357
vn 0.5801 -0.0058 -0.8145
vn -0.3355 -0.4323 0.8370
vn 0.1499 -0.5224 -0.8394
vn -0.1499 -0.5224 -0.8394
vn 0.5801 -0.0058 0.8145
vn 0.1499 -0.5224 0.8394
vn -0.1499 -0.5224 0.8394
vn 0.3355 -0.4323 -0.8370
vn -0.5801 -0.0058 0.8145
vn -0.4148 -0.3600 -0.8357
vn 0.8641 0.0226 -0.5028
vn -0.8641 0.0226 0.5028
vn -0.0710 0.8202 -0.5677
vn -0.2101 0.7879 -0.5789
vn -0.3409 0.7255 -0.5978
vn -0.4599 0.6373 -0.6183
vn -0.5657 0.5281 -0.6334
vn 0.5657 0.5281 -0.6334
vn 0.4599 0.6373 -0.6183
vn 0.3409 0.7255 -0.5978
vn 0.2101 0.7879 -0.5789
vn 0.0710 0.8202 -0.5677
s off
f 1/1/1 3/2/1 4/3/1 2/4/1
f 3/5/2 5/6/2 6/7/2 4/8/2
f 5/9/3 7/10/3 8/11/3 6/12/3
f 7/13/4 9/14/4 10/15/4 8/16/4
f 9/17/5 11/18/5 12/19/5 10/20/5
f 13/21/6 15/22/6 16/23/6 14/24/6
f 15/25/7 17/26/7 18/27/7 16/28/7
f 17/29/8 19/30/8 20/31/8 18/32/8
f 19/33/9 21/34/9 22/35/9 20/36/9
f 21/37/10 1/38/10 2/39/10 22/40/10
f 14/41/11 26/42/11 25/43/11 13/44/11
f 11/45/12 23/46/12 24/47/12 12/48/12
f 44/49/13 46/50/13 72/51/13 70/52/13
f 50/53/14 49/54/14 75/55/14 90/56/14 76/57/14
f 28/58/15 30/59/15 56/60/15 54/61/15
f 45/62/16 43/63/16 69/64/16 71/65/16
f 32/66/17 34/67/17 60/68/17 58/69/17
f 48/70/18 28/71/18 54/72/18 74/73/18
f 29/74/19 27/75/19 53/76/19 55/77/19
f 33/78/20 31/79/20 57/80/20 59/81/20
f 27/82/21 47/83/21 73/84/21 53/85/21
f 36/86/22 38/87/22 64/88/22 62/89/22
f 49/90/23 37/91/23 63/92/23 75/93/23
f 42/94/24 44/95/24 70/96/24 68/97/24
f 16/98/25 18/99/25 44/100/25 42/101/25
f 23/102/25 11/103/25 37/104/25 49/105/25
f 10/106/25 12/107/25 38/108/25 36/109/25
f 1/110/25 21/111/25 47/112/25 27/113/25
f 7/114/25 5/115/25 31/116/25 33/117/25
f 3/118/25 1/110/25 27/113/25 29/119/25
f 22/120/25 2/121/25 28/122/25 48/123/25
f 6/124/25 8/125/25 34/126/25 32/127/25
f 19/128/25 17/129/25 43/130/25 45/131/25
f 2/121/25 4/132/25 30/133/25 28/122/25
f 24/134/25 23/102/25 49/105/25 50/135/25
f 18/99/25 20/136/25 46/137/25 44/100/25
f 15/138/25 13/139/25 39/140/25 41/141/25
f 25/142/25 26/143/25 52/144/25 51/145/25
f 9/146/25 7/114/25 33/117/25 35/147/25
f 14/148/25 16/98/25 42/101/25 40/149/25
f 13/139/25 25/142/25 51/145/25 39/140/25
f 8/125/25 10/106/25 36/109/25 34/126/25
f 21/111/25 19/128/25 45/131/25 47/112/25
f 5/115/25 3/118/25 29/119/25 31/116/25
f 26/143/25 14/148/25 40/149/25 52/144/25
f 20/136/25 22/120/25 48/123/25 46/137/25
f 4/132/25 6/124/25 32/127/25 30/133/25
f 17/129/25 15/138/25 41/141/25 43/130/25
f 12/107/25 24/134/25 50/135/25 38/108/25
f 11/103/25 9/146/25 35/147/25 37/104/25
f 79/150/26 54/151/26 56/152/26 80/153/26
f 80/154/27 56/155/27 58/156/27 81/157/27
f 81/158/28 58/159/28 60/160/28 82/161/28
f 82/162/29 60/163/29 62/164/29 83/165/29
f 83/166/30 62/167/30 64/168/30 84/169/30
f 85/170/31 66/171/31 68/172/31 86/173/31
f 86/174/32 68/175/32 70/176/32 87/177/32
f 87/178/33 70/179/33 72/180/33 88/181/33
f 88/182/34 72/183/34 74/184/34 89/185/34
f 89/186/35 74/187/35 54/188/35 79/189/35
f 85/190/36 65/191/36 77/192/36 91/193/36
f 84/194/37 64/195/37 76/196/37 90/197/37
f 41/198/38 39/199/38 65/200/38 67/201/38
f 51/202/39 52/203/39 78/204/39 91/205/39 77/206/39
f 35/207/40 33/208/40 59/209/40 61/210/40
f 40/211/41 42/212/41 68/213/41 66/214/41
f 39/215/42 51/216/42 77/217/42 65/218/42
f 34/219/43 36/220/43 62/221/43 60/222/43
f 47/223/44 45/224/44 71/225/44 73/226/44
f 31/227/45 29/228/45 55/229/45 57/230/45
f 52/231/46 40/232/46 66/233/46 78/234/46
f 46/235/47 48/236/47 74/237/47 72/238/47
f 30/239/48 32/240/48 58/241/48 56/242/48
f 43/243/49 41/244/49 67/245/49 69/246/49
f 38/247/50 50/248/50 76/249/50 64/250/50
f 37/251/51 35/252/51 61/253/51 63/254/51
f 63/255/52 84/256/52 90/257/52 75/258/52
f 66/259/53 85/260/53 91/261/53 78/262/53
f 73/263/54 89/264/54 79/265/54 53/266/54
f 71/267/55 88/268/55 89/269/55 73/270/55
f 69/271/56 87/272/56 88/273/56 71/274/56
f 67/275/57 86/276/57 87/277/57 69/278/57
f 65/279/58 85/280/58 86/281/58 67/282/58
f 61/283/59 83/284/59 84/285/59 63/286/59
f 59/287/60 82/288/60 83/289/60 61/290/60
f 57/291/61 81/292/61 82/293/61 59/294/61
f 55/295/62 80/296/62 81/297/62 57/298/62
f 53/299/63 79/300/63 80/301/63 55/302/63
