# Blender v2.79 (sub 0) OBJ File: 'crystalwall.blend'
# www.blender.org
mtllib CrystalLight.mtl
o Cube_Cube.004
v -0.000305 0.013459 0.525609
v 0.000000 0.031124 0.395155
v -0.523908 0.013459 0.001137
v -0.395437 0.031124 -0.000282
v 0.523298 0.013459 0.001137
v 0.395437 0.031124 -0.000282
v -0.000305 0.013459 -0.521597
v 0.000000 0.031124 -0.395719
v 0.000000 0.164139 -0.000282
v -0.000305 -0.003229 0.525609
v -0.523908 -0.003229 0.001137
v 0.523298 -0.003229 0.001137
v -0.000305 -0.003229 -0.521597
vt 0.517978 0.017555
vt 0.568678 0.074452
vt 0.568678 0.425548
vt 0.517978 0.482445
vt 0.919444 0.425548
vt 0.982431 0.482445
vt 0.919444 0.074452
vt 0.982431 0.017555
vt 0.108816 0.982445
vt 0.108816 0.517555
vt 0.119302 0.517555
vt 0.119302 0.982445
vt 0.739110 0.250000
vt 0.017569 0.017555
vt 0.482839 0.017555
vt 0.482839 0.482445
vt 0.017569 0.482445
vt 0.017569 0.982445
vt 0.017569 0.517555
vt 0.028054 0.517555
vt 0.028055 0.982445
vt 0.154440 0.982445
vt 0.154440 0.517555
vt 0.164925 0.517555
vt 0.164925 0.982445
vt 0.063193 0.982445
vt 0.063193 0.517555
vt 0.073678 0.517555
vt 0.073678 0.982445
vn -0.1332 0.9821 0.1331
vn -0.1368 0.9811 -0.1369
vn 0.1375 0.9809 -0.1376
vn 0.1338 0.9820 0.1337
vn -0.7077 0.0000 0.7065
vn -0.3038 0.9030 0.3038
vn 0.3038 0.9030 0.3038
vn -0.3038 0.9030 -0.3038
vn 0.3038 0.9030 -0.3038
vn 0.0000 -1.0000 0.0000
vn 0.7065 0.0000 -0.7077
vn 0.7077 0.0000 0.7065
vn -0.7065 0.0000 -0.7077
usemtl None
s off
f 1/1/1 2/2/1 4/3/1 3/4/1
f 3/4/2 4/3/2 8/5/2 7/6/2
f 7/6/3 8/5/3 6/7/3 5/8/3
f 5/8/4 6/7/4 2/2/4 1/1/4
f 1/9/5 3/10/5 11/11/5 10/12/5
f 4/3/6 2/2/6 9/13/6
f 2/2/7 6/7/7 9/13/7
f 8/5/8 4/3/8 9/13/8
f 6/7/9 8/5/9 9/13/9
f 11/14/10 13/15/10 12/16/10 10/17/10
f 7/18/11 5/19/11 12/20/11 13/21/11
f 5/22/12 1/23/12 10/24/12 12/25/12
f 3/26/13 7/27/13 13/28/13 11/29/13
