# Blender v2.79 (sub 0) OBJ File: 'pillar.blend'
# www.blender.org
o Cylinder.000_Cylinder.005
v -0.305455 -0.000063 0.305455
v -0.305455 0.200334 0.305455
v -0.305455 -0.000063 -0.305455
v -0.305455 0.200334 -0.305455
v 0.305455 -0.000063 0.305455
v 0.305455 0.200334 0.305455
v 0.305455 -0.000063 -0.305455
v 0.305455 0.200334 -0.305455
v -0.000000 0.311147 -0.190439
v 0.072878 0.311147 -0.175943
v 0.134661 0.311147 -0.134661
v 0.175943 0.311147 -0.072878
v 0.190439 0.311147 0.000000
v 0.175943 0.311147 0.072878
v 0.134661 0.311147 0.134661
v 0.072878 0.311147 0.175943
v 0.000000 0.311147 0.190439
v -0.072878 0.311147 0.175943
v -0.134661 0.311147 0.134661
v -0.175943 0.311147 0.072878
v -0.190439 0.311147 0.000000
v -0.175943 0.311147 -0.072878
v -0.134661 0.311147 -0.134661
v -0.072878 0.311147 -0.175943
v 0.095671 0.311147 -0.230970
v 0.000000 0.311147 -0.250000
v 0.176777 0.311147 -0.176777
v 0.230970 0.311147 -0.095671
v 0.250000 0.311147 0.000000
v 0.230970 0.311147 0.095671
v 0.176777 0.311147 0.176777
v 0.095671 0.311147 0.230970
v 0.000000 0.311147 0.250000
v -0.095671 0.311147 0.230970
v -0.176777 0.311147 0.176777
v -0.230970 0.311147 0.095671
v -0.250000 0.311147 -0.000000
v -0.230970 0.311147 -0.095671
v -0.176777 0.311147 -0.176777
v -0.095671 0.311147 -0.230970
v -0.305455 2.370327 0.305455
v -0.305455 2.169930 0.305455
v -0.305455 2.370327 -0.305455
v -0.305455 2.169930 -0.305455
v 0.305455 2.370327 0.305455
v 0.305455 2.169930 0.305455
v 0.305455 2.370327 -0.305455
v 0.305455 2.169930 -0.305455
v 0.136176 2.059117 -0.133129
v 0.176756 2.059117 -0.070883
v 0.190427 2.059117 0.002154
v 0.175107 2.059117 0.074864
v 0.133129 2.059117 0.136176
v 0.070883 2.059117 0.176756
v -0.002154 2.059117 0.190427
v -0.074864 2.059117 0.175107
v -0.095671 0.200334 -0.230970
v 0.000000 0.200334 -0.250000
v -0.176777 0.200334 -0.176777
v -0.230970 0.200334 -0.095671
v -0.250000 0.200334 -0.000000
v -0.230970 0.200334 0.095671
v -0.176777 0.200334 0.176777
v 0.095671 0.200334 -0.230970
v 0.176777 0.200334 -0.176777
v -0.095671 0.200334 0.230970
v 0.230970 0.200334 -0.095671
v 0.250000 0.200334 0.000000
v 0.230970 0.200334 0.095671
v 0.176777 0.200334 0.176777
v 0.095671 0.200334 0.230970
v 0.000000 0.200334 0.250000
v -0.136176 2.059117 0.133129
v -0.176756 2.059117 0.070883
v -0.190427 2.059117 -0.002154
v -0.175107 2.059117 -0.074864
v -0.133129 2.059117 -0.136176
v -0.070883 2.059117 -0.176756
v 0.002154 2.059117 -0.190427
v 0.074864 2.059117 -0.175107
v 0.095671 2.059116 -0.230970
v 0.000000 2.059116 -0.250000
v 0.176777 2.059116 -0.176777
v 0.230970 2.059116 -0.095671
v 0.250000 2.059116 0.000000
v 0.230970 2.059116 0.095671
v 0.176777 2.059116 0.176777
v 0.095671 2.059116 0.230970
v 0.000000 2.059116 0.250000
v -0.095671 2.059116 0.230970
v -0.176777 2.059116 0.176777
v -0.230970 2.059116 0.095671
v -0.250000 2.059116 -0.000000
v -0.230970 2.059116 -0.095671
v -0.176777 2.059116 -0.176777
v -0.095671 2.059116 -0.230970
v -0.095671 2.169930 -0.230970
v 0.000000 2.169930 -0.250000
v -0.176777 2.169930 -0.176777
v -0.230970 2.169930 -0.095671
v -0.250000 2.169930 -0.000000
v -0.230970 2.169930 0.095671
v -0.176777 2.169930 0.176777
v 0.095671 2.169930 -0.230970
v 0.176777 2.169930 -0.176777
v -0.095671 2.169930 0.230970
v 0.230970 2.169930 -0.095671
v 0.250000 2.169930 0.000000
v 0.230970 2.169930 0.095671
v 0.176777 2.169930 0.176777
v 0.095671 2.169930 0.230970
v 0.000000 2.169930 0.250000
vt 0.085545 0.998792
vt 0.000000 0.998792
vt 0.000000 0.744133
vt 0.085545 0.744133
vt 0.952696 0.929696
vt 0.867151 0.929696
vt 0.867151 0.671838
vt 0.952696 0.671838
vt 0.781606 0.929696
vt 0.696061 0.929696
vt 0.696061 0.671838
vt 0.781606 0.671838
vt 0.349733 0.745341
vt 0.435277 0.745341
vt 0.435277 1.000000
vt 0.349733 1.000000
vt 0.696061 0.000000
vt 0.956845 0.000000
vt 0.956845 0.257859
vt 0.696061 0.257859
vt 0.696061 0.257859
vt 0.672389 0.128929
vt 0.664265 0.088548
vt 0.641131 0.054314
vt 0.606509 0.031439
vt 0.565669 0.023407
vt 0.524830 0.031439
vt 0.490207 0.054314
vt 0.467073 0.088548
vt 0.458950 0.128929
vt 0.435278 0.000000
vt 0.696061 0.000000
vt 0.308889 0.745341
vt 0.308889 1.000000
vt 0.223344 1.000000
vt 0.223344 0.745341
vt 0.990944 0.257859
vt 0.990944 0.515717
vt 0.905399 0.515717
vt 0.905399 0.257859
vt 0.867151 0.671838
vt 0.867151 0.929696
vt 0.781606 0.929696
vt 0.781606 0.671838
vt 0.137799 0.998792
vt 0.137799 0.744133
vt 0.223344 0.744133
vt 0.223344 0.998792
vt 0.435277 0.515717
vt 0.435278 0.257859
vt 0.696061 0.257859
vt 0.696061 0.515717
vt 0.696061 0.515717
vt 0.696061 0.773576
vt 0.435277 0.773576
vt 0.458950 0.644646
vt 0.467073 0.685028
vt 0.490207 0.719262
vt 0.524830 0.742136
vt 0.565669 0.750169
vt 0.606509 0.742136
vt 0.641131 0.719262
vt 0.664265 0.685028
vt 0.672389 0.644646
vt 0.467073 0.169311
vt 0.490207 0.203545
vt 0.524830 0.226419
vt 0.565669 0.234452
vt 0.606509 0.226419
vt 0.641131 0.203545
vt 0.664265 0.169311
vt 0.435277 0.257859
vt 0.223344 0.000000
vt 0.223344 0.738694
vt 0.193628 0.740142
vt 0.210425 0.000629
vt 0.435277 0.000000
vt 0.435277 0.739105
vt 0.404214 0.740933
vt 0.417948 0.001020
vt 0.161971 0.741683
vt 0.187419 0.001750
vt 0.373167 0.742760
vt 0.391796 0.002559
vt 0.133191 0.743085
vt 0.157829 0.003191
vt 0.346865 0.744308
vt 0.360804 0.004382
vt 0.111672 0.744133
vt 0.126159 0.004733
vt 0.329311 0.745341
vt 0.329689 0.006213
vt 0.329311 0.000000
vt 0.329311 0.739105
vt 0.298247 0.740933
vt 0.311981 0.001020
vt 0.111672 0.000000
vt 0.111672 0.738694
vt 0.081956 0.740141
vt 0.098753 0.000629
vt 0.050298 0.741683
vt 0.075747 0.001750
vt 0.021519 0.743085
vt 0.046157 0.003191
vt 0.267201 0.742760
vt 0.285830 0.002559
vt 0.240898 0.744308
vt 0.254837 0.004382
vt 0.223344 0.745341
vt 0.223723 0.006213
vt 0.435277 0.515717
vt 0.664265 0.604265
vt 0.641131 0.570031
vt 0.606509 0.547156
vt 0.565669 0.539124
vt 0.524830 0.547156
vt 0.490207 0.570031
vt 0.467073 0.604265
vt 0.000000 0.744133
vt 0.014487 0.004733
vt 0.815687 0.440364
vt 0.889464 0.419978
vt 0.860020 0.449092
vt 0.783969 0.440009
vt 0.880462 0.584025
vt 0.880462 0.552661
vt 0.905399 0.547757
vt 0.905399 0.588930
vt 0.868324 0.523685
vt 0.889464 0.509718
vt 0.845895 0.501508
vt 0.860020 0.480604
vt 0.816590 0.489505
vt 0.821550 0.464848
vt 0.784870 0.489505
vt 0.779910 0.464848
vt 0.755565 0.501508
vt 0.741440 0.480604
vt 0.733136 0.523685
vt 0.711996 0.509718
vt 0.720998 0.552661
vt 0.696061 0.547757
vt 0.720998 0.584025
vt 0.696061 0.588930
vt 0.733136 0.613001
vt 0.711996 0.626968
vt 0.755565 0.635179
vt 0.741440 0.656082
vt 0.784870 0.647181
vt 0.779910 0.671838
vt 0.816590 0.647181
vt 0.821550 0.671838
vt 0.845895 0.635179
vt 0.860020 0.656082
vt 0.868324 0.613001
vt 0.889464 0.626968
vt 0.821550 0.464848
vt 0.754804 0.427680
vt 0.785773 0.282343
vt 0.711996 0.302728
vt 0.741440 0.273615
vt 0.817491 0.282698
vt 0.845127 0.428690
vt 0.905399 0.381940
vt 0.779910 0.257859
vt 0.846656 0.295027
vt 0.821550 0.257859
vt 0.868830 0.317454
vt 0.860020 0.273615
vt 0.880637 0.346564
vt 0.889464 0.302728
vt 0.880278 0.377926
vt 0.905399 0.340767
vt 0.867809 0.406765
vt 0.756333 0.294017
vt 0.696061 0.340767
vt 0.577189 0.807842
vt 0.577189 0.848235
vt 0.529885 0.848235
vt 0.529885 0.807842
vt 0.577189 0.773576
vt 0.529885 0.773576
vt 0.529885 0.888605
vt 0.529885 0.922807
vt 0.482581 0.922807
vt 0.482581 0.888605
vt 0.529885 0.807842
vt 0.529885 0.848235
vt 0.482581 0.848235
vt 0.482581 0.807842
vt 0.577189 0.852119
vt 0.577189 0.810977
vt 0.624493 0.810977
vt 0.624493 0.852119
vt 1.000000 0.671838
vt 1.000000 0.702055
vt 0.952696 0.702055
vt 0.952696 0.671838
vt 0.529885 0.773576
vt 0.482581 0.773576
vt 0.577189 0.888605
vt 0.529885 0.888605
vt 1.000000 0.740674
vt 0.952696 0.740674
vt 0.577189 0.920955
vt 0.577189 0.890738
vt 0.624493 0.890738
vt 0.624493 0.920955
vt 0.577189 0.922807
vt 0.529885 0.922807
vt 0.577189 0.773576
vt 0.624493 0.773576
vt 1.000000 0.781816
vt 0.952696 0.781816
vt 1.000000 0.819218
vt 0.952696 0.819218
vt 0.779910 0.464848
vt 0.732630 0.405253
vt 0.741440 0.449092
vt 0.720824 0.376142
vt 0.711996 0.419979
vt 0.721182 0.344781
vt 0.696061 0.381940
vt 0.733652 0.315942
vt 0.435278 0.807842
vt 0.482581 0.807842
vt 0.482581 0.848235
vt 0.435277 0.848235
vt 0.435277 0.773576
vt 0.482581 0.773576
vt 0.137799 0.778334
vt 0.090495 0.778334
vt 0.090495 0.744133
vt 0.137799 0.744133
vt 0.137799 0.859098
vt 0.090495 0.859098
vt 0.090495 0.818705
vt 0.137799 0.818705
vt 0.952703 0.594260
vt 0.905399 0.594260
vt 0.905399 0.553118
vt 0.952703 0.553118
vt 0.624493 0.773576
vt 0.671797 0.773576
vt 0.671797 0.803793
vt 0.624493 0.803793
vt 0.137799 0.893364
vt 0.090495 0.893364
vt 0.482581 0.888605
vt 0.435277 0.888605
vt 0.671797 0.842412
vt 0.624493 0.842412
vt 0.952703 0.663096
vt 0.905399 0.663096
vt 0.905399 0.632879
vt 0.952703 0.632879
vt 0.482581 0.922807
vt 0.435277 0.922807
vt 0.905399 0.515717
vt 0.952703 0.515717
vt 0.671797 0.883554
vt 0.624493 0.883554
vt 0.671797 0.920955
vt 0.624493 0.920955
vn -1.0000 0.0000 0.0000
vn 0.0000 0.0000 -1.0000
vn 1.0000 0.0000 0.0000
vn 0.0000 0.0000 1.0000
vn 0.0000 -1.0000 0.0000
vn 0.0000 1.0000 -0.0000
vn -0.8283 0.0000 -0.5603
vn 0.8283 -0.0000 0.5603
vn -0.9797 -0.0000 -0.2006
vn 0.9797 0.0000 0.2006
vn -0.9819 0.0000 0.1895
vn 0.9819 -0.0000 -0.1895
vn -0.8346 0.0000 0.5509
vn 0.8346 -0.0000 -0.5509
vn 0.5603 -0.0000 -0.8283
vn -0.5603 -0.0000 0.8283
vn -0.2006 0.0000 0.9797
vn 0.1895 0.0000 0.9819
vn 0.2006 0.0000 -0.9797
vn -0.1895 0.0000 -0.9819
vn -0.5509 0.0000 -0.8346
vn 0.5509 -0.0000 0.8346
vn -0.5161 -0.6950 0.5005
vn -0.2855 -0.6657 0.6894
vn -0.5276 -0.6657 0.5276
vn -0.6684 -0.6950 0.2649
vn 0.2485 0.7551 -0.6067
vn 0.4617 0.7551 -0.4655
vn 0.2855 0.6657 -0.6894
vn 0.0000 0.6657 -0.7462
vn 0.6047 0.7551 -0.2533
vn 0.5276 0.6657 -0.5276
vn 0.6556 0.7551 -0.0026
vn 0.6894 0.6657 -0.2855
vn 0.6067 0.7551 0.2485
vn 0.7462 0.6657 0.0000
vn 0.4655 0.7551 0.4617
vn 0.6894 0.6657 0.2855
vn 0.2533 0.7551 0.6047
vn 0.5276 0.6657 0.5276
vn 0.0026 0.7551 0.6556
vn 0.2855 0.6657 0.6894
vn -0.2485 0.7551 0.6067
vn 0.0000 0.6657 0.7462
vn -0.4617 0.7551 0.4655
vn -0.2855 0.6657 0.6894
vn -0.6047 0.7551 0.2533
vn -0.5276 0.6657 0.5276
vn -0.6556 0.7551 0.0026
vn -0.6894 0.6657 0.2855
vn -0.6067 0.7551 -0.2485
vn -0.7462 0.6657 0.0000
vn -0.4655 0.7551 -0.4617
vn -0.6894 0.6657 -0.2855
vn -0.2533 0.7551 -0.6047
vn -0.5276 0.6657 -0.5276
vn -0.0026 0.7551 -0.6556
vn -0.2855 0.6657 -0.6894
vn -0.6894 -0.6657 0.2855
vn -0.7189 -0.6950 -0.0110
vn 0.5161 -0.6950 -0.5005
vn 0.2855 -0.6657 -0.6894
vn 0.5276 -0.6657 -0.5276
vn 0.6684 -0.6950 -0.2649
vn -0.2853 -0.6950 0.6599
vn 0.0000 -0.6657 0.7462
vn 0.6894 -0.6657 -0.2855
vn 0.7189 -0.6950 0.0110
vn 0.7462 -0.6657 0.0000
vn 0.6599 -0.6950 0.2853
vn 0.6894 -0.6657 0.2855
vn 0.5005 -0.6950 0.5161
vn 0.5276 -0.6657 0.5276
vn 0.2649 -0.6950 0.6684
vn 0.2855 -0.6657 0.6894
vn -0.0110 -0.6950 0.7189
vn 0.2853 -0.6950 -0.6599
vn 0.0000 -0.6657 -0.7462
vn 0.6607 0.7506 0.0000
vn -0.6607 0.7506 0.0000
vn -0.7462 -0.6657 0.0000
vn -0.6599 -0.6950 -0.2853
vn -0.6894 -0.6657 -0.2855
vn -0.5005 -0.6950 -0.5161
vn -0.5276 -0.6657 -0.5276
vn -0.2649 -0.6950 -0.6684
vn -0.2855 -0.6657 -0.6894
vn 0.0110 -0.6950 -0.7189
vn 0.6607 -0.7506 0.0000
vn -0.6607 -0.7506 0.0000
s off
f 1/1/1 2/2/1 4/3/1 3/4/1
f 3/5/2 4/6/2 8/7/2 7/8/2
f 7/9/3 8/10/3 6/11/3 5/12/3
f 5/13/4 6/14/4 2/15/4 1/16/4
f 3/17/5 7/18/5 5/19/5 1/20/5
f 8/21/6 68/22/6 69/23/6 70/24/6 71/25/6 72/26/6 66/27/6 63/28/6 62/29/6 61/30/6 2/31/6 6/32/6
f 41/33/1 43/34/1 44/35/1 42/36/1
f 43/37/2 47/38/2 48/39/2 44/40/2
f 47/41/3 45/42/3 46/43/3 48/44/3
f 45/45/4 41/46/4 42/47/4 46/48/4
f 43/49/6 41/50/6 45/51/6 47/52/6
f 48/53/5 46/54/5 42/55/5 101/56/5 102/57/5 103/58/5 106/59/5 112/60/5 111/61/5 110/62/5 109/63/5 108/64/5
f 2/31/6 61/30/6 60/65/6 59/66/6 57/67/6 58/68/6 64/69/6 65/70/6 67/71/6 68/22/6 8/21/6 4/72/6
f 78/73/7 22/74/7 21/75/7 77/76/7
f 54/77/8 14/78/8 13/79/8 53/80/8
f 77/76/9 21/75/9 20/81/9 76/82/9
f 53/80/10 13/79/10 12/83/10 52/84/10
f 76/82/11 20/81/11 19/85/11 75/86/11
f 52/84/12 12/83/12 11/87/12 51/88/12
f 75/86/13 19/85/13 18/89/13 74/90/13
f 51/88/14 11/87/14 10/91/14 50/92/14
f 50/93/15 10/94/15 9/95/15 49/96/15
f 74/97/16 18/98/16 17/99/16 73/100/16
f 73/100/17 17/99/17 16/101/17 56/102/17
f 56/102/18 16/101/18 15/103/18 55/104/18
f 49/96/19 9/95/19 24/105/19 80/106/19
f 80/106/20 24/105/20 23/107/20 79/108/20
f 79/108/21 23/107/21 22/109/21 78/110/21
f 42/55/5 44/111/5 48/53/5 108/64/5 107/112/5 105/113/5 104/114/5 98/115/5 97/116/5 99/117/5 100/118/5 101/56/5
f 55/104/22 15/103/22 14/119/22 54/120/22
s 1
f 74/121/23 90/122/24 91/123/25 75/124/26
f 9/125/27 10/126/28 25/127/29 26/128/30
f 10/126/28 11/129/31 27/130/32 25/127/29
f 11/129/31 12/131/33 28/132/34 27/130/32
f 12/131/33 13/133/35 29/134/36 28/132/34
f 13/133/35 14/135/37 30/136/38 29/134/36
f 14/135/37 15/137/39 31/138/40 30/136/38
f 15/137/39 16/139/41 32/140/42 31/138/40
f 16/139/41 17/141/43 33/142/44 32/140/42
f 17/141/43 18/143/45 34/144/46 33/142/44
f 18/143/45 19/145/47 35/146/48 34/144/46
f 19/145/47 20/147/49 36/148/50 35/146/48
f 20/147/49 21/149/51 37/150/52 36/148/50
f 21/149/51 22/151/53 38/152/54 37/150/52
f 22/151/53 23/153/55 39/154/56 38/152/54
f 23/153/55 24/155/57 40/156/58 39/154/56
f 24/155/57 9/125/27 26/128/30 40/156/58
f 75/124/26 91/123/25 92/157/59 76/158/60
f 50/159/61 81/160/62 83/161/63 51/162/64
f 73/163/65 89/164/66 90/122/24 74/121/23
f 51/162/64 83/161/63 84/165/67 52/166/68
f 52/166/68 84/165/67 85/167/69 53/168/70
f 53/168/70 85/167/69 86/169/71 54/170/72
f 54/170/72 86/169/71 87/171/73 55/172/74
f 55/172/74 87/171/73 88/173/75 56/174/76
f 56/174/76 88/173/75 89/164/66 73/163/65
f 49/175/77 82/176/78 81/160/62 50/159/61
f 64/177/29 58/178/30 26/179/30 25/180/29
f 65/181/32 64/177/29 25/180/29 27/182/32
f 67/183/34 65/184/32 27/185/32 28/186/34
f 69/187/38 68/188/79 29/189/36 30/190/38
f 61/191/80 62/192/50 36/193/50 37/194/52
f 68/188/79 67/183/34 28/186/34 29/189/36
f 63/195/48 66/196/46 34/197/46 35/198/48
f 70/199/40 69/187/38 30/190/38 31/200/40
f 58/178/30 57/201/58 40/202/58 26/179/30
f 66/196/46 72/203/44 33/204/44 34/197/46
f 59/205/56 60/206/54 38/207/54 39/208/56
f 60/206/54 61/191/80 37/194/52 38/207/54
f 57/201/58 59/209/56 39/210/56 40/202/58
f 62/192/50 63/211/48 35/212/48 36/193/50
f 72/203/44 71/213/42 32/214/42 33/204/44
f 71/213/42 70/215/40 31/216/40 32/214/42
f 76/158/60 92/157/59 93/217/81 77/218/82
f 77/218/82 93/217/81 94/219/83 78/220/84
f 78/220/84 94/219/83 95/221/85 79/222/86
f 79/222/86 95/221/85 96/223/87 80/224/88
f 80/224/88 96/223/87 82/176/78 49/175/77
f 104/225/62 81/226/62 82/227/78 98/228/78
f 105/229/63 83/230/63 81/226/62 104/225/62
f 107/231/67 84/232/67 83/233/63 105/234/63
f 109/235/71 86/236/71 85/237/69 108/238/89
f 101/239/90 93/240/81 92/241/59 102/242/59
f 108/238/89 85/237/69 84/232/67 107/231/67
f 103/243/25 91/244/25 90/245/24 106/246/24
f 110/247/73 87/248/73 86/236/71 109/235/71
f 98/228/78 82/227/78 96/249/87 97/250/87
f 106/246/24 90/245/24 89/251/66 112/252/66
f 99/253/85 95/254/85 94/255/83 100/256/83
f 100/256/83 94/255/83 93/240/81 101/239/90
f 97/250/87 96/249/87 95/257/85 99/258/85
f 102/242/59 92/241/59 91/259/25 103/260/25
f 112/252/66 89/251/66 88/261/75 111/262/75
f 111/262/75 88/261/75 87/263/73 110/264/73
