# Blender v2.79 (sub 0) OBJ File: 'crystal.blend'
# www.blender.org
o Cylinder
v -0.000379 -0.167670 0.001830
v 0.120377 -0.075420 0.089563
v -0.046503 -0.075420 0.143786
v -0.149642 -0.075420 0.001830
v -0.046503 -0.075420 -0.140127
v 0.120377 -0.075420 -0.085904
v 0.045745 0.073844 0.143786
v -0.121135 0.073844 0.089563
v -0.121135 0.073844 -0.085904
v 0.045745 0.073844 -0.140127
v 0.148885 0.073844 0.001830
v -0.000379 0.166094 0.001830
vt 0.189872 0.083080
vt 0.157911 0.358184
vt 0.022511 0.196432
vt 0.376989 0.253103
vt 0.298609 0.973594
vt 0.272511 0.748973
vt 0.477490 0.887796
vt 0.048609 0.524348
vt 0.227490 0.610146
vt 0.022511 0.748969
vt 0.376989 0.026406
vt 0.325275 0.471536
vt 0.798609 0.524348
vt 0.977489 0.610146
vt 0.772511 0.748973
vt 0.477490 0.610146
vt 0.227490 0.887795
vt 0.727490 0.887795
vt 0.548609 0.973594
vt 0.522511 0.748968
vt 0.977490 0.887796
vt 0.298609 0.524348
vt 0.724775 0.026406
vt 0.776489 0.244839
vt 0.557411 0.139758
vt 0.048609 0.973594
vt 0.727490 0.610146
vt 0.798609 0.973594
vt 0.776489 0.471536
vt 0.589372 0.414862
vt 0.422010 0.301510
vt 0.548609 0.524348
vn 0.1876 -0.7947 0.5774
vn 0.6071 -0.7947 0.0000
vn -0.4911 -0.7947 0.3568
vn -0.4911 -0.7947 -0.3568
vn 0.1876 -0.7947 -0.5774
vn 0.9822 -0.1876 0.0000
vn 0.3035 -0.1876 0.9342
vn -0.7946 -0.1876 0.5774
vn -0.7946 -0.1876 -0.5774
vn 0.3035 -0.1876 -0.9342
vn 0.7946 0.1876 0.5774
vn -0.3035 0.1876 0.9342
vn -0.9822 0.1876 0.0000
vn -0.3035 0.1876 -0.9342
vn 0.7946 0.1876 -0.5774
vn 0.4911 0.7947 0.3568
vn -0.1876 0.7947 0.5774
vn -0.6071 0.7947 0.0000
vn -0.1876 0.7947 -0.5774
vn 0.4911 0.7947 -0.3568
s off
f 1/1/1 2/2/1 3/3/1
f 2/2/2 1/1/2 6/4/2
f 1/5/3 3/6/3 4/7/3
f 1/8/4 4/9/4 5/10/4
f 1/1/5 5/11/5 6/4/5
f 2/2/6 6/4/6 11/12/6
f 3/13/7 2/14/7 7/15/7
f 4/7/8 3/6/8 8/16/8
f 5/10/9 4/9/9 9/17/9
f 6/18/10 5/19/10 10/20/10
f 2/14/11 11/21/11 7/15/11
f 3/6/12 7/22/12 8/16/12
f 4/23/13 8/24/13 9/25/13
f 5/10/14 9/17/14 10/26/14
f 6/18/15 10/20/15 11/27/15
f 7/15/16 11/21/16 12/28/16
f 8/24/17 7/29/17 12/30/17
f 9/25/18 8/24/18 12/30/18
f 10/31/19 9/25/19 12/30/19
f 11/27/20 10/20/20 12/32/20
