# Blender v2.79 (sub 0) OBJ File: 'statue.blend'
# www.blender.org
o Cylinder
v -0.162461 0.000174 -0.018849
v 0.162461 0.000175 -0.018849
v -0.162461 -0.013127 -0.013340
v 0.162461 -0.013127 -0.013340
v -0.162461 -0.018637 -0.000038
v 0.162461 -0.018637 -0.000038
v -0.162461 -0.013127 0.013263
v 0.162461 -0.013127 0.013263
v -0.162461 0.000174 0.018773
v 0.162461 0.000175 0.018773
v -0.162461 0.013476 0.013263
v 0.162461 0.013476 0.013263
v -0.162461 0.018986 -0.000038
v 0.162461 0.018986 -0.000038
v -0.162461 0.013476 -0.013340
v 0.162461 0.013476 -0.013340
vt 0.257920 0.007561
vt 0.257920 0.511624
vt 0.110225 0.511624
vt 0.110225 0.007561
vt 0.005789 0.511624
vt 0.005789 0.007561
vt 0.373935 0.511624
vt 0.373935 0.007561
vt 0.478371 0.007561
vt 0.478371 0.511624
vt 0.626065 0.007561
vt 0.626065 0.511624
vt 0.730502 0.007561
vt 0.730502 0.511624
vt 0.994211 0.007561
vt 0.994211 0.511624
vt 0.889775 0.511624
vt 0.889775 0.007561
vt 0.626065 0.526746
vt 0.730502 0.663144
vt 0.730502 0.856041
vt 0.626065 0.992439
vt 0.478371 0.992439
vt 0.373935 0.856041
vt 0.373935 0.663144
vt 0.478371 0.526746
vt 0.742080 0.511624
vt 0.742080 0.007561
vt 0.362356 0.007561
vt 0.362356 0.511624
vt 0.005789 0.856041
vt 0.005789 0.663144
vt 0.110225 0.526746
vt 0.257920 0.526746
vt 0.362356 0.663144
vt 0.362356 0.856041
vt 0.257920 0.992439
vt 0.110225 0.992439
vn 0.0000 -0.3827 -0.9239
vn 0.0000 -0.9239 -0.3827
vn 0.0000 -0.9239 0.3827
vn 0.0000 -0.3827 0.9239
vn -0.0000 0.3827 0.9239
vn -0.0000 0.9239 0.3827
vn 1.0000 -0.0000 0.0000
vn -0.0000 0.9239 -0.3827
vn -0.0000 0.3827 -0.9239
vn -1.0000 0.0000 0.0000
s off
f 1/1/1 2/2/1 4/3/1 3/4/1
f 3/4/2 4/3/2 6/5/2 5/6/2
f 5/7/3 6/8/3 8/9/3 7/10/3
f 7/10/4 8/9/4 10/11/4 9/12/4
f 9/12/5 10/11/5 12/13/5 11/14/5
f 11/15/6 12/16/6 14/17/6 13/18/6
f 4/19/7 2/20/7 16/21/7 14/22/7 12/23/7 10/24/7 8/25/7 6/26/7
f 13/18/8 14/17/8 16/27/8 15/28/8
f 15/29/9 16/30/9 2/2/9 1/1/9
f 1/31/10 3/32/10 5/33/10 7/34/10 9/35/10 11/36/10 13/37/10 15/38/10
