# Blender v2.79 (sub 0) OBJ File: 'chest.blend'
# www.blender.org
o Cube_Cube.002
v -1.328527 -0.619816 0.841177
v -1.168115 0.000109 0.802820
v -1.328527 -0.619816 -0.838677
v -1.168115 0.000109 -0.800319
v -0.000071 -0.619816 0.841177
v -0.160483 0.000109 0.802820
v -0.000071 -0.619816 -0.838677
v -0.160483 0.000109 -0.800319
v -1.328527 -0.055549 0.841177
v -1.328527 -0.055549 -0.838677
v -0.000071 -0.055549 -0.838677
v -0.000071 -0.055549 0.841177
v -1.161593 -0.219694 0.749930
v -1.161593 -0.219694 -0.747430
v -0.167004 -0.219694 -0.747430
v -0.167004 -0.219694 0.749930
v -1.213544 -0.625901 -0.998750
v -1.213544 -0.625901 1.001250
v -1.213544 -0.049464 1.001250
v -1.213544 -0.049464 -0.998750
v -0.115053 -0.049464 -0.998750
v -0.115053 -0.625901 -0.998750
v -0.115053 -0.625901 1.001250
v -0.115053 -0.049464 1.001250
v -1.328527 -0.675475 1.001250
v -1.328527 0.000109 1.001250
v -1.328527 0.000109 -0.998750
v -1.328527 -0.675475 -0.998750
v -0.000070 -0.675475 -0.998750
v -0.000070 0.000109 -0.998750
v -0.000070 0.000109 1.001250
v -0.000070 -0.675475 1.001250
v -1.296227 -0.619816 -0.838677
v -1.296227 -0.619816 0.841177
v -1.296227 -0.055549 0.841177
v -1.296227 -0.055549 -0.838677
v -0.032370 -0.055549 -0.838677
v -0.032370 -0.619816 -0.838677
v -0.032370 -0.619816 0.841177
v -0.032370 -0.055549 0.841177
v -1.213544 -0.625901 0.969067
v -1.213544 -0.049464 0.969067
v -1.213544 -0.049464 -0.966566
v -1.213544 -0.625901 -0.966566
v -0.115053 -0.625901 -0.966566
v -0.115053 -0.049464 -0.966566
v -0.115053 -0.049464 0.969067
v -0.115053 -0.625901 0.969067
vt 0.962376 0.508378
vt 0.962376 0.320751
vt 0.966917 0.320751
vt 0.966917 0.508378
vt 0.692110 0.819618
vt 0.692110 0.977109
vt 0.687709 0.977109
vt 0.687709 0.819618
vt 0.871392 0.320751
vt 0.871392 0.555018
vt 0.866852 0.555018
vt 0.866852 0.320751
vt 0.655961 0.977109
vt 0.655961 0.819618
vt 0.660362 0.819618
vt 0.660362 0.977109
vt 0.200422 0.599664
vt 0.013674 0.599664
vt 0.013674 0.320751
vt 0.200422 0.320751
vt 0.720255 0.237514
vt 0.720255 0.013946
vt 0.791925 0.021322
vt 0.791925 0.230139
vt 0.391968 0.571992
vt 0.391968 0.348423
vt 0.414518 0.320751
vt 0.414518 0.599664
vt 0.250319 0.348423
vt 0.227769 0.320751
vt 0.250319 0.571992
vt 0.227769 0.599664
vt 0.655961 0.582909
vt 0.795775 0.582909
vt 0.795775 0.791726
vt 0.655961 0.791726
vt 0.890942 0.013946
vt 0.890942 0.237514
vt 0.819272 0.230138
vt 0.819272 0.021322
vt 0.823123 0.899731
vt 0.823123 0.755266
vt 0.894876 0.756201
vt 0.894876 0.898796
vt 0.823123 0.727374
vt 0.823123 0.582909
vt 0.894876 0.583844
vt 0.894876 0.726439
vt 0.215804 0.270536
vt 0.215804 0.036269
vt 0.233952 0.013946
vt 0.233952 0.292859
vt 0.031821 0.270536
vt 0.013674 0.292859
vt 0.031821 0.036269
vt 0.013674 0.013946
vt 0.279447 0.270536
vt 0.463430 0.270536
vt 0.481577 0.292859
vt 0.261299 0.292859
vt 0.463430 0.036269
vt 0.481577 0.013946
vt 0.279447 0.036269
vt 0.261299 0.013946
vt 0.612450 0.791066
vt 0.612450 0.599393
vt 0.628613 0.582909
vt 0.628613 0.807550
vt 0.029838 0.644040
vt 0.029838 0.835713
vt 0.013674 0.852197
vt 0.013674 0.627556
vt 0.184258 0.835713
vt 0.200422 0.852197
vt 0.184258 0.644040
vt 0.200422 0.627556
vt 0.458029 0.599393
vt 0.458029 0.791066
vt 0.441865 0.807550
vt 0.441865 0.582909
vt 0.625848 0.555018
vt 0.441865 0.555018
vt 0.441865 0.320751
vt 0.625848 0.320751
vt 0.653195 0.512424
vt 0.653195 0.320751
vt 0.807616 0.320751
vt 0.807616 0.512424
vt 0.692908 0.248213
vt 0.508925 0.248213
vt 0.508925 0.013946
vt 0.692908 0.013946
vt 0.227769 0.819229
vt 0.227769 0.627556
vt 0.382190 0.627556
vt 0.382190 0.819229
vt 0.930628 0.512439
vt 0.930628 0.320751
vt 0.935029 0.320751
vt 0.935029 0.512439
vt 0.414078 0.627556
vt 0.414078 0.861823
vt 0.409538 0.861823
vt 0.409538 0.627556
vt 0.950037 0.205634
vt 0.950037 0.013946
vt 0.954438 0.013946
vt 0.954438 0.205634
vt 0.953972 0.986054
vt 0.953972 0.798427
vt 0.958513 0.798427
vt 0.958513 0.986054
vt 0.926625 0.802489
vt 0.926625 0.959980
vt 0.922224 0.959980
vt 0.922224 0.802489
vt 0.953972 0.770536
vt 0.953972 0.582909
vt 0.958513 0.582909
vt 0.958513 0.770536
vt 0.719457 0.977109
vt 0.719457 0.819618
vt 0.723858 0.819618
vt 0.723858 0.977109
vt 0.839504 0.320751
vt 0.839504 0.555018
vt 0.834964 0.555018
vt 0.834964 0.320751
vt 0.922690 0.013946
vt 0.922690 0.205634
vt 0.918289 0.205634
vt 0.918289 0.013946
vt 0.903280 0.320751
vt 0.903280 0.555018
vt 0.898740 0.555018
vt 0.898740 0.320751
vt 0.922224 0.774597
vt 0.922224 0.582909
vt 0.926625 0.582909
vt 0.926625 0.774597
vt 0.986326 0.013946
vt 0.986326 0.201573
vt 0.981786 0.201573
vt 0.981786 0.013946
vn -0.0000 0.0000 -1.0000
vn 0.0000 -1.0000 0.0000
vn 0.0000 1.0000 0.0000
vn -0.9996 0.0297 0.0000
vn 0.9996 0.0297 0.0000
vn 0.0000 0.2339 -0.9722
vn 0.0000 0.2339 0.9722
vn -1.0000 -0.0000 0.0000
vn 1.0000 0.0000 0.0000
vn 0.0000 0.0000 1.0000
s off
f 1/1/1 9/2/1 35/3/1 34/4/1
f 24/5/2 19/6/2 42/7/2 47/8/2
f 3/9/3 1/10/3 34/11/3 33/12/3
f 18/13/3 23/14/3 48/15/3 41/16/3
f 28/17/2 29/18/2 32/19/2 25/20/2
f 6/21/4 8/22/4 15/23/4 16/24/4
f 2/25/3 4/26/3 27/27/3 26/28/3
f 4/26/3 8/29/3 30/30/3 27/27/3
f 8/29/3 6/31/3 31/32/3 30/30/3
f 6/31/3 2/25/3 26/28/3 31/32/3
f 15/33/3 14/34/3 13/35/3 16/36/3
f 4/37/5 2/38/5 13/39/5 14/40/5
f 2/41/6 6/42/6 16/43/6 13/44/6
f 8/45/7 4/46/7 14/47/7 15/48/7
f 1/49/8 3/50/8 28/51/8 25/52/8
f 9/53/8 1/49/8 25/52/8 26/54/8
f 10/55/8 9/53/8 26/54/8 27/56/8
f 3/50/8 10/55/8 27/56/8 28/51/8
f 11/57/9 7/58/9 29/59/9 30/60/9
f 7/58/9 5/61/9 32/62/9 29/59/9
f 12/63/9 11/57/9 30/60/9 31/64/9
f 5/61/9 12/63/9 31/64/9 32/62/9
f 18/65/10 19/66/10 26/67/10 25/68/10
f 20/69/1 17/70/1 28/71/1 27/72/1
f 17/70/1 22/73/1 29/74/1 28/71/1
f 21/75/1 20/69/1 27/72/1 30/76/1
f 22/73/1 21/75/1 30/76/1 29/74/1
f 24/77/10 23/78/10 32/79/10 31/80/10
f 23/78/10 18/65/10 25/68/10 32/79/10
f 19/66/10 24/77/10 31/80/10 26/67/10
f 34/81/8 35/82/8 36/83/8 33/84/8
f 44/85/1 43/86/1 46/87/1 45/88/1
f 38/89/9 37/90/9 40/91/9 39/92/9
f 48/93/10 47/94/10 42/95/10 41/96/10
f 19/97/9 18/98/9 41/99/9 42/100/9
f 9/101/2 10/102/2 36/103/2 35/104/2
f 17/105/9 20/106/9 43/107/9 44/108/9
f 10/109/10 3/110/10 33/111/10 36/112/10
f 22/113/3 17/114/3 44/115/3 45/116/3
f 7/117/10 11/118/10 37/119/10 38/120/10
f 20/121/2 21/122/2 46/123/2 43/124/2
f 5/125/3 7/126/3 38/127/3 39/128/3
f 21/129/8 22/130/8 45/131/8 46/132/8
f 11/133/2 12/134/2 40/135/2 37/136/2
f 23/137/8 24/138/8 47/139/8 48/140/8
f 12/141/1 5/142/1 39/143/1 40/144/1
